<svg width="32" height="32" viewBox="0 0 32 32" fill="none" xmlns="http://www.w3.org/2000/svg">
<path d="M15.9973 12.6652C14.1611 12.6652 12.6626 14.1638 12.6626 16C12.6626 17.8362 14.1611 19.3348 15.9973 19.3348C17.8335 19.3348 19.332 17.8362 19.332 16C19.332 14.1638 17.8335 12.6652 15.9973 12.6652ZM25.9989 16C25.9989 14.6191 26.0114 13.2506 25.9338 11.8722C25.8563 10.2711 25.4911 8.85017 24.3203 7.67938C23.147 6.50609 21.7286 6.14334 20.1275 6.06579C18.7466 5.98824 17.3782 6.00074 15.9998 6.00074C14.6189 6.00074 13.2505 5.98824 11.8721 6.06579C10.271 6.14334 8.85012 6.50859 7.67935 7.67938C6.50608 8.85267 6.14334 10.2711 6.06579 11.8722C5.98824 13.2531 6.00074 14.6216 6.00074 16C6.00074 17.3784 5.98824 18.7494 6.06579 20.1278C6.14334 21.7289 6.50858 23.1498 7.67935 24.3206C8.85262 25.4939 10.271 25.8567 11.8721 25.9342C13.253 26.0118 14.6214 25.9993 15.9998 25.9993C17.3807 25.9993 18.7491 26.0118 20.1275 25.9342C21.7286 25.8567 23.1495 25.4914 24.3203 24.3206C25.4936 23.1473 25.8563 21.7289 25.9338 20.1278C26.0139 18.7494 25.9989 17.3809 25.9989 16ZM15.9973 21.131C13.1579 21.131 10.8664 18.8394 10.8664 16C10.8664 13.1606 13.1579 10.869 15.9973 10.869C18.8367 10.869 21.1282 13.1606 21.1282 16C21.1282 18.8394 18.8367 21.131 15.9973 21.131ZM21.3383 11.8572C20.6754 11.8572 20.14 11.3218 20.14 10.6589C20.14 9.99594 20.6754 9.46058 21.3383 9.46058C22.0013 9.46058 22.5366 9.99594 22.5366 10.6589C22.5368 10.8163 22.5059 10.9722 22.4458 11.1177C22.3856 11.2632 22.2974 11.3954 22.1861 11.5067C22.0748 11.618 21.9426 11.7062 21.7971 11.7664C21.6516 11.8265 21.4957 11.8574 21.3383 11.8572Z" fill="#3C4563"/>
</svg>
