<svg width="32" height="32" viewBox="0 0 32 32" fill="none" xmlns="http://www.w3.org/2000/svg">
<path d="M28 8.37575C27.1174 8.76628 26.157 9.04735 25.1676 9.15682C26.1948 8.53089 26.9639 7.54202 27.3308 6.37575C26.367 6.96388 25.3111 7.37629 24.2101 7.59469C23.7499 7.09003 23.1933 6.688 22.575 6.41364C21.9567 6.13929 21.2899 5.99849 20.6163 6.00001C17.8906 6.00001 15.6986 8.26628 15.6986 11.0473C15.6986 11.4379 15.7447 11.8284 15.8197 12.2042C11.7385 11.9852 8.09855 9.98522 5.67864 6.92309C5.23771 7.69562 5.00665 8.57524 5.00949 9.47042C5.00949 11.2219 5.87766 12.7663 7.20154 13.6746C6.42136 13.643 5.65944 13.4231 4.97777 13.0326V13.0947C4.97777 15.5473 6.66795 17.5799 8.92056 18.0473C8.49761 18.16 8.06251 18.2177 7.62553 18.2189C7.30537 18.2189 7.00252 18.1864 6.69679 18.142C7.31979 20.142 9.134 21.5947 11.2943 21.642C9.60413 23 7.48708 23.7988 5.18832 23.7988C4.77587 23.7988 4.39514 23.784 4 23.7367C6.18051 25.1716 8.7677 26 11.5539 26C20.599 26 25.5484 18.3136 25.5484 11.642C25.5484 11.4231 25.5484 11.2042 25.534 10.9852C26.4915 10.2663 27.3308 9.37575 28 8.37575Z" fill="#3C4563"/>
</svg>
